<mxfile host="app.diagrams.net" modified="2021-12-23T08:20:52.560Z" agent="5.0 (Windows NT 10.0; Win64; x64) AppleWebKit/537.36 (KHTML, like Gecko) Chrome/96.0.4664.110 Safari/537.36" etag="S-y8kmR8SSChL4gWFV0j" version="16.0.3" type="github">
  <diagram name="Page-1" id="13e1069c-82ec-6db2-03f1-153e76fe0fe0">
    <mxGraphModel dx="1221" dy="681" grid="1" gridSize="10" guides="1" tooltips="1" connect="1" arrows="1" fold="1" page="1" pageScale="1" pageWidth="1100" pageHeight="850" background="none" math="0" shadow="0">
      <root>
        <mxCell id="0" />
        <mxCell id="1" parent="0" />
        <mxCell id="-DomMB3YcxF8r1uj53os-1" value="DLR" style="shape=umlLifeline;perimeter=lifelinePerimeter;whiteSpace=wrap;html=1;container=1;collapsible=0;recursiveResize=0;outlineConnect=0;" vertex="1" parent="1">
          <mxGeometry x="70" y="40" width="100" height="1450" as="geometry" />
        </mxCell>
        <mxCell id="-DomMB3YcxF8r1uj53os-2" value="GTMC技术支援" style="shape=umlLifeline;perimeter=lifelinePerimeter;whiteSpace=wrap;html=1;container=1;collapsible=0;recursiveResize=0;outlineConnect=0;" vertex="1" parent="1">
          <mxGeometry x="700" y="40" width="100" height="2220" as="geometry" />
        </mxCell>
        <mxCell id="-DomMB3YcxF8r1uj53os-3" value="" style="html=1;points=[];perimeter=orthogonalPerimeter;" vertex="1" parent="-DomMB3YcxF8r1uj53os-2">
          <mxGeometry x="45" y="100" width="10" height="40" as="geometry" />
        </mxCell>
        <mxCell id="-DomMB3YcxF8r1uj53os-4" value="1.经销商基于工单创建初期品质案件" style="html=1;verticalAlign=bottom;endArrow=block;entryX=0;entryY=0;rounded=0;" edge="1" target="-DomMB3YcxF8r1uj53os-3" parent="1">
          <mxGeometry relative="1" as="geometry">
            <mxPoint x="120" y="140" as="sourcePoint" />
          </mxGeometry>
        </mxCell>
        <mxCell id="-DomMB3YcxF8r1uj53os-5" value="" style="html=1;verticalAlign=bottom;endArrow=open;dashed=1;endSize=8;exitX=0;exitY=0.95;rounded=0;" edge="1" source="-DomMB3YcxF8r1uj53os-3" parent="1" target="-DomMB3YcxF8r1uj53os-1">
          <mxGeometry relative="1" as="geometry">
            <mxPoint x="120" y="216" as="targetPoint" />
          </mxGeometry>
        </mxCell>
      </root>
    </mxGraphModel>
  </diagram>
</mxfile>
